<?xml version="1.0" standalone="no"?><svg xmlns="http://www.w3.org/2000/svg" viewBox="0 0 1440 320"><path fill="#171f47" fill-opacity="1" d="M0,192L21.8,202.7C43.6,213,87,235,131,250.7C174.5,267,218,277,262,256C305.5,235,349,181,393,149.3C436.4,117,480,107,524,133.3C567.3,160,611,224,655,224C698.2,224,742,160,785,128C829.1,96,873,96,916,85.3C960,75,1004,53,1047,74.7C1090.9,96,1135,160,1178,186.7C1221.8,213,1265,203,1309,165.3C1352.7,128,1396,64,1418,32L1440,0L1440,0L1418.2,0C1396.4,0,1353,0,1309,0C1265.5,0,1222,0,1178,0C1134.5,0,1091,0,1047,0C1003.6,0,960,0,916,0C872.7,0,829,0,785,0C741.8,0,698,0,655,0C610.9,0,567,0,524,0C480,0,436,0,393,0C349.1,0,305,0,262,0C218.2,0,175,0,131,0C87.3,0,44,0,22,0L0,0Z"></path></svg>